<?xml version="1.0" encoding="utf-8"?>
<!-- Generator: Adobe Illustrator 16.0.0, SVG Export Plug-In . SVG Version: 6.00 Build 0)  -->
<!DOCTYPE svg PUBLIC "-//W3C//DTD SVG 1.1//EN" "http://www.w3.org/Graphics/SVG/1.1/DTD/svg11.dtd">
<svg version="1.1" xmlns="http://www.w3.org/2000/svg" xmlns:xlink="http://www.w3.org/1999/xlink" x="0px" y="0px" width="300px"
	 height="300px" viewBox="0 0 300 300" enable-background="new 0 0 300 300" xml:space="preserve">
<g id="Layer_1">
	<g>
		<g>
			<g>
				
					<radialGradient id="SVGID_1_" cx="150" cy="150" r="82.9495" gradientTransform="matrix(1 0 0 0.9 0 15)" gradientUnits="userSpaceOnUse">
					<stop  offset="0" style="stop-color:#3CBDC4"/>
					<stop  offset="0.0038" style="stop-color:#3CBDC4"/>
					<stop  offset="0.3318" style="stop-color:#1B97A4"/>
					<stop  offset="0.5965" style="stop-color:#078090"/>
					<stop  offset="0.7633" style="stop-color:#007889"/>
				</radialGradient>
				<path fill="url(#SVGID_1_)" d="M238.149,218.979c-0.228-0.636-5.729-15.757-19.105-30.944
					c-17.74-20.143-41.015-30.864-67.336-31.032l-20.274-36.385l18.17-30.163l38.312,61.046c0,0.001,0.001,0.002,0.002,0.002
					l0.084,0.135c0.343,0.546,0.761,1.016,1.229,1.408c4.68,4.014,13.852,0.133,13.852,0.133l-4.671-7.479
					c-0.076-0.148-0.155-0.296-0.246-0.44l-43.584-69.447C153.483,74.061,151.563,73,149.5,73c-0.018,0-0.037,0-0.055,0
					c-2.084,0.019-4.009,1.118-5.085,2.903l-25,41.5c-1.11,1.842-1.148,4.138-0.102,6.017l19.184,34.428
					c-21.231,2.896-40.42,13.147-56.062,30.08c-13.975,15.127-20.182,30.179-20.44,30.812c-0.751,1.85-0.534,3.952,0.581,5.608
					c1.115,1.657,2.98,2.65,4.978,2.65h51c2.112,0,4.068-1.11,5.151-2.923c1.083-1.813,1.133-4.062,0.132-5.922l-6.061-11.951
					c-5.299-11.57-15.763-5.87-15.763-5.87l4.599,10.335c0.016,0.038,0.034,0.076,0.051,0.114l0.743,1.669l0,0l1.104,2.548H77.292
					c3.014-5.213,7.687-12.255,14.178-19.225c15.018-16.126,32.929-25.037,53.314-26.545l30.474,54.69
					c1.06,1.9,3.064,3.079,5.241,3.079h52c1.952,0,3.781-0.949,4.905-2.545S238.807,220.816,238.149,218.979z M184.025,215
					l-25.453-45.679c19.997,1.743,37.188,10.579,51.189,26.331c6.249,7.03,10.616,14.139,13.37,19.348H184.025z"/>
			</g>
		</g>
		<linearGradient id="SVGID_2_" gradientUnits="userSpaceOnUse" x1="158.1621" y1="168.9521" x2="158.1621" y2="192.9277">
			<stop  offset="0" style="stop-color:#007889;stop-opacity:0.8"/>
			<stop  offset="0.9987" style="stop-color:#007889;stop-opacity:0"/>
		</linearGradient>
		<path fill="url(#SVGID_2_)" d="M171.574,192.928l-13.621-0.051l-9.925-17.761l-3.278-5.882c0,0,3.995-0.24,6.703-0.279
			s7.119,0.366,7.119,0.366s5.868,10.501,7.287,13.069S171.574,192.928,171.574,192.928z"/>
	</g>
</g>
<g id="Layer_2">
</g>
</svg>
